<?xml version="1.0" standalone="no"?>
<!DOCTYPE svg PUBLIC "-//W3C//DTD SVG 20010904//EN"
 "http://www.w3.org/TR/2001/REC-SVG-20010904/DTD/svg10.dtd">
<svg version="1.0" xmlns="http://www.w3.org/2000/svg"
 width="369.000000pt" height="369.000000pt" viewBox="0 0 369.000000 369.000000"
 preserveAspectRatio="xMidYMid meet">

<g transform="translate(0.000000,369.000000) scale(0.100000,-0.100000)"
fill="#000000" stroke="none">
<path d="M1055 3044 c-160 -25 -302 -114 -389 -246 -57 -86 -79 -158 -84 -279
-5 -120 8 -180 60 -283 37 -74 144 -183 212 -218 l49 -25 71 36 c68 34 75 36
176 36 95 0 111 -3 167 -29 l63 -29 42 28 c24 15 55 39 71 53 l27 26 0 -45 c0
-158 93 -304 238 -372 62 -29 75 -32 167 -32 71 1 111 6 138 17 l38 17 -7 -48
c-14 -104 41 -246 123 -322 193 -178 508 -112 621 129 24 50 27 70 27 157 0
87 -3 107 -27 157 -55 119 -171 207 -297 227 -61 10 -140 3 -191 -17 l-25 -10
-1 92 c-1 104 -16 154 -71 234 -68 100 -206 172 -328 172 -64 0 -167 -31 -217
-65 -20 -14 -38 -25 -40 -25 -2 0 -1 40 0 89 2 49 -1 113 -7 144 -27 128 -129
275 -241 347 -96 62 -261 99 -365 84z m-19 -169 c34 -52 -15 -112 -71 -87 -54
25 -35 112 25 112 20 0 35 -8 46 -25z m264 5 c11 -11 20 -28 20 -37 0 -23 -39
-63 -62 -63 -25 0 -58 35 -58 62 0 52 62 76 100 38z m-213 -122 c6 -7 18 -37
28 -67 l17 -53 22 63 21 64 73 3 c44 2 79 -2 87 -8 8 -6 24 -45 36 -86 21 -71
31 -85 44 -64 12 19 64 11 76 -11 17 -33 -3 -69 -39 -69 -16 0 -32 3 -36 7 -4
4 -17 8 -29 8 -17 0 -26 11 -40 50 -12 33 -16 39 -13 19 19 -117 19 -134 2
-134 -14 0 -16 -15 -16 -115 0 -96 -3 -117 -16 -122 -27 -10 -33 10 -35 125
-1 61 -5 112 -10 112 -5 0 -10 -53 -11 -117 -3 -110 -4 -118 -23 -118 -19 0
-20 8 -23 118 -2 99 -5 117 -19 117 -13 0 -15 9 -9 63 4 34 9 73 11 87 3 14
-3 0 -13 -30 -14 -42 -23 -56 -39 -58 -19 -3 -25 6 -45 70 l-23 73 -3 -45 c-1
-25 -6 -124 -10 -220 -7 -166 -8 -175 -27 -175 -19 0 -20 8 -25 135 -5 111 -6
121 -9 58 -2 -43 -5 -82 -6 -88 -1 -5 -3 -33 -4 -61 -1 -46 -3 -50 -23 -47
-23 3 -23 5 -30 213 -4 116 -9 217 -11 225 -2 8 -13 -19 -26 -61 -23 -75 -24
-77 -60 -83 -60 -10 -71 -7 -81 20 -14 36 3 64 38 64 16 0 33 -5 38 -10 7 -7
18 14 33 62 13 40 28 79 33 86 7 8 40 12 98 12 58 0 91 -4 97 -12z m-214 -308
c21 -72 20 -70 2 -70 -8 0 -15 5 -15 12 0 6 -3 9 -6 5 -3 -3 -9 -38 -12 -79
-6 -58 -10 -73 -24 -76 -16 -3 -18 5 -20 60 l-1 63 -6 -60 c-5 -46 -10 -61
-23 -63 -16 -3 -18 5 -18 57 0 37 -4 61 -11 61 -6 0 -8 10 -5 23 3 12 3 16 0
10 -8 -17 -34 -17 -34 0 0 7 7 37 15 65 l16 52 63 0 63 0 16 -60z m662 8 c19
-64 19 -78 0 -78 -8 0 -18 14 -23 33 -7 26 -10 14 -16 -71 -7 -89 -10 -103
-24 -100 -13 2 -18 18 -23 63 l-6 60 -1 -62 c-2 -46 -6 -63 -16 -63 -19 0 -26
31 -27 130 -1 70 -2 79 -10 53 -10 -34 -23 -48 -38 -39 -8 5 4 59 24 114 3 8
27 12 74 12 l70 0 16 -52z m322 -229 c15 -5 40 -22 54 -35 21 -20 28 -22 32
-11 8 22 89 57 133 57 76 0 144 -68 144 -143 0 -51 -22 -96 -79 -159 -57 -64
-199 -170 -214 -161 -90 52 -205 155 -248 222 -37 58 -40 134 -7 176 46 59
117 80 185 54z m733 -371 c0 19 5 22 40 22 l39 0 -6 -51 -6 -52 49 -43 c46
-40 48 -43 32 -60 -20 -21 -8 -29 -153 103 l-90 81 -110 -99 c-60 -54 -113
-99 -116 -99 -4 0 -12 7 -19 16 -15 17 -19 13 144 163 l99 92 49 -48 c42 -41
48 -44 48 -25z m5 -104 l95 -86 0 -124 c0 -106 2 -124 16 -124 10 0 14 -7 12
-22 -3 -23 -3 -23 -225 -26 l-223 -2 0 25 c0 14 6 25 13 25 9 0 11 28 9 117
l-4 118 99 92 c54 51 101 93 105 93 4 0 50 -39 103 -86z"/>
<path d="M1897 2128 c-4 -12 -7 -52 -8 -88 -1 -36 -3 -56 -6 -45 -10 47 -14
51 -27 33 -9 -13 -31 -18 -87 -21 l-74 -3 77 -2 c64 -2 79 1 87 16 9 15 10 13
11 -10 0 -14 3 -34 6 -43 12 -31 24 6 25 80 2 61 3 65 9 30 l7 -40 1 45 c2 54
-12 84 -21 48z"/>
<path d="M1977 2104 c-4 -4 -7 -22 -7 -40 0 -26 -4 -32 -15 -28 -12 5 -15 -5
-17 -57 l-1 -64 -7 55 -7 55 -1 -72 c-2 -75 11 -105 22 -52 3 18 7 55 7 83 1
28 4 42 7 31 4 -17 7 -14 18 15 l12 35 1 -47 c1 -27 6 -48 11 -48 10 0 9 17
-9 108 -3 19 -10 30 -14 26z"/>
<path d="M2010 2016 c0 -14 12 -16 83 -14 l82 2 -70 3 c-38 2 -75 9 -82 15
-10 8 -13 6 -13 -6z"/>
<path d="M2440 1520 l0 -100 55 0 55 0 0 100 0 100 -55 0 -55 0 0 -100z"/>
<path d="M2330 1560 c0 -5 5 -10 10 -10 6 0 10 5 10 10 0 6 -4 10 -10 10 -5 0
-10 -4 -10 -10z"/>
<path d="M2380 1560 c0 -5 5 -10 10 -10 6 0 10 5 10 10 0 6 -4 10 -10 10 -5 0
-10 -4 -10 -10z"/>
<path d="M2582 1559 c2 -6 8 -10 13 -10 5 0 11 4 13 10 2 6 -4 11 -13 11 -9 0
-15 -5 -13 -11z"/>
<path d="M2632 1558 c6 -18 28 -21 28 -4 0 9 -7 16 -16 16 -9 0 -14 -5 -12
-12z"/>
<path d="M2330 1505 c0 -8 5 -15 10 -15 6 0 10 7 10 15 0 8 -4 15 -10 15 -5 0
-10 -7 -10 -15z"/>
<path d="M2380 1505 c0 -8 5 -15 10 -15 6 0 10 7 10 15 0 8 -4 15 -10 15 -5 0
-10 -7 -10 -15z"/>
<path d="M2580 1505 c0 -8 7 -15 15 -15 8 0 15 7 15 15 0 8 -7 15 -15 15 -8 0
-15 -7 -15 -15z"/>
<path d="M2630 1505 c0 -8 7 -15 15 -15 8 0 15 7 15 15 0 8 -7 15 -15 15 -8 0
-15 -7 -15 -15z"/>
<path d="M2545 2901 c-49 -12 -93 -39 -135 -82 -180 -186 -26 -507 234 -487
159 13 266 132 266 294 0 183 -181 319 -365 275z m233 -274 l3 -147 -28 -12
c-35 -14 -73 -18 -73 -6 0 11 -107 11 -114 0 -10 -17 -83 0 -98 22 -9 13 -11
258 -2 280 6 14 26 16 158 14 l151 -3 3 -148z"/>
<path d="M2517 2733 c-3 -4 44 -7 105 -5 l110 3 -4 -40 c-2 -25 1 -41 7 -41 7
0 9 15 6 43 l-6 42 -107 3 c-58 1 -109 -1 -111 -5z"/>
<path d="M2500 2686 c0 -8 4 -17 9 -20 10 -7 23 19 14 28 -11 11 -23 6 -23 -8z"/>
<path d="M2600 2645 c-26 -31 13 -82 44 -56 19 16 21 42 4 59 -16 16 -33 15
-48 -3z m46 -34 c-4 -6 -16 -11 -27 -11 -21 0 -27 35 -6 43 16 6 41 -18 33
-32z"/>
<path d="M2610 2620 c0 -5 5 -10 10 -10 6 0 10 5 10 10 0 6 -4 10 -10 10 -5 0
-10 -4 -10 -10z"/>
<path d="M2728 2577 l5 -58 -111 3 c-60 2 -108 0 -105 -4 8 -14 213 -9 217 5
10 30 15 111 7 98 -7 -11 -9 -11 -14 0 -3 8 -2 -12 1 -44z"/>
<path d="M2500 2576 c0 -8 4 -17 9 -20 10 -7 23 19 14 28 -11 11 -23 6 -23 -8z"/>
<path d="M1584 1600 c-26 -8 -34 -18 -44 -56 -16 -57 -81 -156 -121 -185 -40
-28 -40 -84 2 -167 51 -104 136 -155 255 -156 94 -1 171 37 225 108 45 59 59
104 59 187 -1 106 -60 202 -155 252 -45 23 -169 33 -221 17z m120 -106 c26
-26 51 -62 57 -85 11 -36 14 -38 29 -24 23 21 33 19 20 -4 -14 -28 -13 -71 5
-121 22 -61 19 -85 -14 -122 l-30 -33 5 40 c3 22 1 51 -5 65 -11 23 -11 23 -7
-10 8 -72 -35 -114 -92 -91 -32 14 -49 40 -55 86 -3 17 -3 9 -2 -17 1 -27 -1
-48 -5 -48 -14 0 -60 50 -70 75 -7 17 -5 41 4 77 8 34 10 63 5 82 -11 38 -7
41 25 21 25 -17 26 -16 26 2 0 11 12 37 26 58 19 28 24 46 20 67 -8 39 5 35
58 -18z"/>
<path d="M431 1471 c-19 -35 40 -319 115 -552 34 -107 40 -117 93 -169 66 -65
183 -128 420 -226 192 -79 264 -123 321 -195 44 -56 99 -157 120 -223 11 -33
14 -36 22 -22 18 31 76 279 83 351 7 67 5 73 -29 139 -53 101 -141 229 -194
284 -52 52 -174 135 -386 262 -150 91 -168 94 -174 31 -3 -30 6 -42 96 -129
55 -54 107 -112 117 -131 15 -30 15 -35 1 -49 -13 -14 -23 -13 -98 12 -46 15
-114 44 -153 64 -83 44 -91 56 -171 262 -78 197 -109 265 -133 289 -26 26 -37
26 -50 2z"/>
<path d="M3076 1389 c-18 -14 -66 -99 -138 -245 -69 -140 -121 -233 -138 -247
-30 -25 -225 -94 -275 -97 -49 -3 -55 -1 -55 23 0 29 45 78 153 167 96 79 112
109 80 142 -20 20 -20 19 -184 -63 -348 -174 -394 -207 -530 -389 -110 -146
-113 -153 -106 -274 4 -85 35 -276 53 -325 3 -9 17 12 35 49 37 79 106 176
154 218 54 48 119 77 329 149 218 74 335 126 408 180 64 46 93 107 183 375 76
231 96 321 74 344 -14 13 -18 12 -43 -7z"/>
</g>
</svg>
